<mxfile host="app.diagrams.net" modified="2023-09-17T02:09:54.066Z" agent="Mozilla/5.0 (X11; Linux x86_64) AppleWebKit/537.36 (KHTML, like Gecko) Chrome/116.0.0.0 Safari/537.36" etag="2xsLlaG4v75t1eocen-X" version="21.7.5" type="github">
  <diagram name="Page-1" id="RbBu2vMyzUoNwvo9ZV07">
    <mxGraphModel dx="2058" dy="1004" grid="1" gridSize="10" guides="1" tooltips="1" connect="1" arrows="1" fold="1" page="1" pageScale="1" pageWidth="850" pageHeight="1100" math="0" shadow="0">
      <root>
        <mxCell id="0" />
        <mxCell id="1" parent="0" />
        <mxCell id="ADKkHKOh7hSKeZ0-6uWj-30" style="edgeStyle=orthogonalEdgeStyle;rounded=0;orthogonalLoop=1;jettySize=auto;html=1;exitX=0.5;exitY=1;exitDx=0;exitDy=0;entryX=0.5;entryY=0;entryDx=0;entryDy=0;" edge="1" parent="1" source="ADKkHKOh7hSKeZ0-6uWj-1" target="ADKkHKOh7hSKeZ0-6uWj-6">
          <mxGeometry relative="1" as="geometry">
            <Array as="points">
              <mxPoint x="425" y="110" />
              <mxPoint x="630" y="110" />
              <mxPoint x="630" y="150" />
            </Array>
          </mxGeometry>
        </mxCell>
        <mxCell id="ADKkHKOh7hSKeZ0-6uWj-32" style="edgeStyle=orthogonalEdgeStyle;rounded=0;orthogonalLoop=1;jettySize=auto;html=1;exitX=0.5;exitY=1;exitDx=0;exitDy=0;entryX=0.5;entryY=0;entryDx=0;entryDy=0;" edge="1" parent="1" source="ADKkHKOh7hSKeZ0-6uWj-1" target="ADKkHKOh7hSKeZ0-6uWj-8">
          <mxGeometry relative="1" as="geometry" />
        </mxCell>
        <mxCell id="ADKkHKOh7hSKeZ0-6uWj-66" style="edgeStyle=orthogonalEdgeStyle;rounded=0;orthogonalLoop=1;jettySize=auto;html=1;exitX=0.5;exitY=1;exitDx=0;exitDy=0;entryX=0.5;entryY=0;entryDx=0;entryDy=0;" edge="1" parent="1" source="ADKkHKOh7hSKeZ0-6uWj-1" target="ADKkHKOh7hSKeZ0-6uWj-16">
          <mxGeometry relative="1" as="geometry">
            <Array as="points">
              <mxPoint x="425" y="110" />
              <mxPoint x="250" y="110" />
            </Array>
          </mxGeometry>
        </mxCell>
        <mxCell id="ADKkHKOh7hSKeZ0-6uWj-68" style="edgeStyle=orthogonalEdgeStyle;rounded=0;orthogonalLoop=1;jettySize=auto;html=1;exitX=0.5;exitY=1;exitDx=0;exitDy=0;" edge="1" parent="1" source="ADKkHKOh7hSKeZ0-6uWj-1" target="ADKkHKOh7hSKeZ0-6uWj-14">
          <mxGeometry relative="1" as="geometry">
            <Array as="points">
              <mxPoint x="425" y="110" />
              <mxPoint x="83" y="110" />
            </Array>
          </mxGeometry>
        </mxCell>
        <mxCell id="ADKkHKOh7hSKeZ0-6uWj-1" value="simple_shell" style="swimlane;" vertex="1" parent="1">
          <mxGeometry x="365" width="130.5" height="80" as="geometry" />
        </mxCell>
        <mxCell id="ADKkHKOh7hSKeZ0-6uWj-69" value="&lt;ul&gt;&lt;li&gt;malloc: no&lt;/li&gt;&lt;li style=&quot;&quot;&gt;return: int&lt;/li&gt;&lt;/ul&gt;" style="text;html=1;align=left;verticalAlign=middle;resizable=1;points=[];autosize=1;strokeColor=none;fillColor=none;movable=1;rotatable=1;deletable=1;editable=1;locked=0;connectable=1;" vertex="1" parent="ADKkHKOh7hSKeZ0-6uWj-1">
          <mxGeometry x="-9.5" y="10" width="120" height="70" as="geometry" />
        </mxCell>
        <mxCell id="ADKkHKOh7hSKeZ0-6uWj-45" style="edgeStyle=orthogonalEdgeStyle;rounded=0;orthogonalLoop=1;jettySize=auto;html=1;exitX=0.5;exitY=1;exitDx=0;exitDy=0;entryX=0.5;entryY=0;entryDx=0;entryDy=0;" edge="1" parent="1" source="ADKkHKOh7hSKeZ0-6uWj-3" target="ADKkHKOh7hSKeZ0-6uWj-15">
          <mxGeometry relative="1" as="geometry" />
        </mxCell>
        <mxCell id="ADKkHKOh7hSKeZ0-6uWj-3" value="_getenv" style="swimlane;movable=1;resizable=1;rotatable=1;deletable=1;editable=1;locked=0;connectable=1;" vertex="1" parent="1">
          <mxGeometry x="470" y="470" width="130" height="85" as="geometry" />
        </mxCell>
        <mxCell id="ADKkHKOh7hSKeZ0-6uWj-43" value="&lt;ul&gt;&lt;li&gt;malloc: yes&lt;/li&gt;&lt;li style=&quot;&quot;&gt;return: char *&lt;/li&gt;&lt;/ul&gt;" style="text;html=1;align=left;verticalAlign=middle;resizable=1;points=[];autosize=1;strokeColor=none;fillColor=none;movable=1;rotatable=1;deletable=1;editable=1;locked=0;connectable=1;" vertex="1" parent="ADKkHKOh7hSKeZ0-6uWj-3">
          <mxGeometry y="15" width="130" height="70" as="geometry" />
        </mxCell>
        <mxCell id="ADKkHKOh7hSKeZ0-6uWj-4" value="remove_newline" style="swimlane;" vertex="1" parent="1">
          <mxGeometry x="110" y="300" width="125" height="90" as="geometry" />
        </mxCell>
        <mxCell id="ADKkHKOh7hSKeZ0-6uWj-37" value="&lt;ul&gt;&lt;li&gt;malloc: no&lt;/li&gt;&lt;li style=&quot;&quot;&gt;return: char *&lt;/li&gt;&lt;/ul&gt;" style="text;html=1;align=left;verticalAlign=middle;resizable=0;points=[];autosize=1;strokeColor=none;fillColor=none;" vertex="1" parent="ADKkHKOh7hSKeZ0-6uWj-4">
          <mxGeometry x="-5" y="20" width="130" height="70" as="geometry" />
        </mxCell>
        <mxCell id="ADKkHKOh7hSKeZ0-6uWj-5" value="get_token_len" style="swimlane;" vertex="1" parent="1">
          <mxGeometry x="420" y="300" width="125" height="90" as="geometry" />
        </mxCell>
        <mxCell id="ADKkHKOh7hSKeZ0-6uWj-35" value="&lt;ul&gt;&lt;li&gt;malloc: no&lt;/li&gt;&lt;li style=&quot;&quot;&gt;return: int&lt;/li&gt;&lt;/ul&gt;" style="text;html=1;align=left;verticalAlign=middle;resizable=0;points=[];autosize=1;strokeColor=none;fillColor=none;" vertex="1" parent="ADKkHKOh7hSKeZ0-6uWj-5">
          <mxGeometry x="-5" y="20" width="120" height="70" as="geometry" />
        </mxCell>
        <mxCell id="ADKkHKOh7hSKeZ0-6uWj-55" style="edgeStyle=orthogonalEdgeStyle;rounded=0;orthogonalLoop=1;jettySize=auto;html=1;exitX=0.5;exitY=1;exitDx=0;exitDy=0;entryX=0.5;entryY=0;entryDx=0;entryDy=0;" edge="1" parent="1" source="ADKkHKOh7hSKeZ0-6uWj-6" target="ADKkHKOh7hSKeZ0-6uWj-7">
          <mxGeometry relative="1" as="geometry" />
        </mxCell>
        <mxCell id="ADKkHKOh7hSKeZ0-6uWj-56" style="edgeStyle=orthogonalEdgeStyle;rounded=0;orthogonalLoop=1;jettySize=auto;html=1;exitX=0.5;exitY=1;exitDx=0;exitDy=0;entryX=0.5;entryY=0;entryDx=0;entryDy=0;" edge="1" parent="1" source="ADKkHKOh7hSKeZ0-6uWj-6" target="ADKkHKOh7hSKeZ0-6uWj-13">
          <mxGeometry relative="1" as="geometry" />
        </mxCell>
        <mxCell id="ADKkHKOh7hSKeZ0-6uWj-59" style="edgeStyle=orthogonalEdgeStyle;rounded=0;orthogonalLoop=1;jettySize=auto;html=1;exitX=0.5;exitY=1;exitDx=0;exitDy=0;entryX=0.5;entryY=0;entryDx=0;entryDy=0;" edge="1" parent="1" source="ADKkHKOh7hSKeZ0-6uWj-6" target="ADKkHKOh7hSKeZ0-6uWj-57">
          <mxGeometry relative="1" as="geometry" />
        </mxCell>
        <mxCell id="ADKkHKOh7hSKeZ0-6uWj-6" value="get_cmd_path" style="swimlane;" vertex="1" parent="1">
          <mxGeometry x="570" y="150" width="130" height="90" as="geometry" />
        </mxCell>
        <mxCell id="ADKkHKOh7hSKeZ0-6uWj-51" value="&lt;ul&gt;&lt;li&gt;malloc: no&lt;/li&gt;&lt;li style=&quot;&quot;&gt;return: char *&lt;/li&gt;&lt;/ul&gt;" style="text;html=1;align=left;verticalAlign=middle;resizable=0;points=[];autosize=1;strokeColor=none;fillColor=none;movable=0;rotatable=0;deletable=0;editable=0;locked=1;connectable=0;" vertex="1" parent="ADKkHKOh7hSKeZ0-6uWj-6">
          <mxGeometry y="20" width="130" height="70" as="geometry" />
        </mxCell>
        <mxCell id="ADKkHKOh7hSKeZ0-6uWj-44" style="edgeStyle=orthogonalEdgeStyle;rounded=0;orthogonalLoop=1;jettySize=auto;html=1;exitX=0.5;exitY=1;exitDx=0;exitDy=0;entryX=0.5;entryY=0;entryDx=0;entryDy=0;" edge="1" parent="1" source="ADKkHKOh7hSKeZ0-6uWj-7" target="ADKkHKOh7hSKeZ0-6uWj-3">
          <mxGeometry relative="1" as="geometry" />
        </mxCell>
        <mxCell id="ADKkHKOh7hSKeZ0-6uWj-48" style="edgeStyle=orthogonalEdgeStyle;rounded=0;orthogonalLoop=1;jettySize=auto;html=1;exitX=0.5;exitY=1;exitDx=0;exitDy=0;" edge="1" parent="1" source="ADKkHKOh7hSKeZ0-6uWj-7" target="ADKkHKOh7hSKeZ0-6uWj-9">
          <mxGeometry relative="1" as="geometry" />
        </mxCell>
        <mxCell id="ADKkHKOh7hSKeZ0-6uWj-65" style="edgeStyle=orthogonalEdgeStyle;rounded=0;orthogonalLoop=1;jettySize=auto;html=1;exitX=0.5;exitY=1;exitDx=0;exitDy=0;" edge="1" parent="1" source="ADKkHKOh7hSKeZ0-6uWj-7" target="ADKkHKOh7hSKeZ0-6uWj-63">
          <mxGeometry relative="1" as="geometry" />
        </mxCell>
        <mxCell id="ADKkHKOh7hSKeZ0-6uWj-7" value="create_path_ll" style="swimlane;movable=1;resizable=1;rotatable=1;deletable=1;editable=1;locked=0;connectable=1;" vertex="1" parent="1">
          <mxGeometry x="615" y="310" width="120" height="100" as="geometry" />
        </mxCell>
        <mxCell id="ADKkHKOh7hSKeZ0-6uWj-41" value="&lt;ul&gt;&lt;li&gt;malloc: no&lt;/li&gt;&lt;li style=&quot;&quot;&gt;return: p_ll *&lt;/li&gt;&lt;/ul&gt;" style="text;html=1;align=left;verticalAlign=middle;resizable=1;points=[];autosize=1;strokeColor=none;fillColor=none;movable=1;rotatable=1;deletable=1;editable=1;locked=0;connectable=1;" vertex="1" parent="ADKkHKOh7hSKeZ0-6uWj-7">
          <mxGeometry x="-10" y="30" width="130" height="70" as="geometry" />
        </mxCell>
        <mxCell id="ADKkHKOh7hSKeZ0-6uWj-33" style="edgeStyle=orthogonalEdgeStyle;rounded=0;orthogonalLoop=1;jettySize=auto;html=1;exitX=0.5;exitY=1;exitDx=0;exitDy=0;entryX=0.5;entryY=0;entryDx=0;entryDy=0;" edge="1" parent="1" source="ADKkHKOh7hSKeZ0-6uWj-8" target="ADKkHKOh7hSKeZ0-6uWj-12">
          <mxGeometry relative="1" as="geometry" />
        </mxCell>
        <mxCell id="ADKkHKOh7hSKeZ0-6uWj-36" style="edgeStyle=orthogonalEdgeStyle;rounded=0;orthogonalLoop=1;jettySize=auto;html=1;exitX=0.5;exitY=1;exitDx=0;exitDy=0;" edge="1" parent="1" source="ADKkHKOh7hSKeZ0-6uWj-8" target="ADKkHKOh7hSKeZ0-6uWj-5">
          <mxGeometry relative="1" as="geometry" />
        </mxCell>
        <mxCell id="ADKkHKOh7hSKeZ0-6uWj-38" style="edgeStyle=orthogonalEdgeStyle;rounded=0;orthogonalLoop=1;jettySize=auto;html=1;exitX=0.5;exitY=1;exitDx=0;exitDy=0;" edge="1" parent="1" source="ADKkHKOh7hSKeZ0-6uWj-8" target="ADKkHKOh7hSKeZ0-6uWj-4">
          <mxGeometry relative="1" as="geometry" />
        </mxCell>
        <mxCell id="ADKkHKOh7hSKeZ0-6uWj-8" value="create_cmd_table" style="swimlane;" vertex="1" parent="1">
          <mxGeometry x="358" y="150" width="135" height="90" as="geometry" />
        </mxCell>
        <mxCell id="ADKkHKOh7hSKeZ0-6uWj-27" value="&lt;ul&gt;&lt;li&gt;malloc: yes&lt;/li&gt;&lt;li style=&quot;&quot;&gt;return: char **&lt;/li&gt;&lt;/ul&gt;" style="text;html=1;align=left;verticalAlign=middle;resizable=1;points=[];autosize=1;strokeColor=none;fillColor=none;movable=1;rotatable=1;deletable=1;editable=1;locked=0;connectable=1;" vertex="1" parent="ADKkHKOh7hSKeZ0-6uWj-8">
          <mxGeometry x="-5" y="20" width="140" height="70" as="geometry" />
        </mxCell>
        <mxCell id="ADKkHKOh7hSKeZ0-6uWj-9" value="append_node" style="swimlane;" vertex="1" parent="1">
          <mxGeometry x="640" y="470" width="120" height="100" as="geometry" />
        </mxCell>
        <mxCell id="ADKkHKOh7hSKeZ0-6uWj-46" value="&lt;ul&gt;&lt;li&gt;malloc: yes&lt;/li&gt;&lt;li style=&quot;&quot;&gt;return: p_ll *&lt;/li&gt;&lt;/ul&gt;" style="text;html=1;align=left;verticalAlign=middle;resizable=1;points=[];autosize=1;strokeColor=none;fillColor=none;movable=1;rotatable=1;deletable=1;editable=1;locked=0;connectable=1;" vertex="1" parent="ADKkHKOh7hSKeZ0-6uWj-9">
          <mxGeometry x="-10" y="30" width="130" height="70" as="geometry" />
        </mxCell>
        <mxCell id="ADKkHKOh7hSKeZ0-6uWj-12" value="_strdup" style="swimlane;" vertex="1" parent="1">
          <mxGeometry x="263" y="300" width="125" height="90" as="geometry" />
        </mxCell>
        <mxCell id="ADKkHKOh7hSKeZ0-6uWj-34" value="&lt;ul&gt;&lt;li&gt;malloc: yes&lt;/li&gt;&lt;li style=&quot;&quot;&gt;return: char *&lt;/li&gt;&lt;/ul&gt;" style="text;html=1;align=left;verticalAlign=middle;resizable=0;points=[];autosize=1;strokeColor=none;fillColor=none;" vertex="1" parent="ADKkHKOh7hSKeZ0-6uWj-12">
          <mxGeometry x="-5" y="20" width="130" height="70" as="geometry" />
        </mxCell>
        <mxCell id="ADKkHKOh7hSKeZ0-6uWj-13" value="_strcat" style="swimlane;" vertex="1" parent="1">
          <mxGeometry x="760" y="310" width="120" height="100" as="geometry" />
        </mxCell>
        <mxCell id="ADKkHKOh7hSKeZ0-6uWj-52" value="&lt;ul&gt;&lt;li&gt;malloc: yes&lt;/li&gt;&lt;li style=&quot;&quot;&gt;return: char *&lt;/li&gt;&lt;/ul&gt;" style="text;html=1;align=left;verticalAlign=middle;resizable=1;points=[];autosize=1;strokeColor=none;fillColor=none;movable=1;rotatable=1;deletable=1;editable=1;locked=0;connectable=1;" vertex="1" parent="ADKkHKOh7hSKeZ0-6uWj-13">
          <mxGeometry x="-10" y="30" width="130" height="70" as="geometry" />
        </mxCell>
        <mxCell id="ADKkHKOh7hSKeZ0-6uWj-14" value="run cmd" style="swimlane;" vertex="1" parent="1">
          <mxGeometry x="20" y="160" width="125" height="90" as="geometry" />
        </mxCell>
        <mxCell id="ADKkHKOh7hSKeZ0-6uWj-67" value="&lt;ul&gt;&lt;li&gt;malloc: no&lt;/li&gt;&lt;li style=&quot;&quot;&gt;return: void&lt;/li&gt;&lt;/ul&gt;" style="text;html=1;align=left;verticalAlign=middle;resizable=0;points=[];autosize=1;strokeColor=none;fillColor=none;" vertex="1" parent="ADKkHKOh7hSKeZ0-6uWj-14">
          <mxGeometry x="-6" y="20" width="120" height="70" as="geometry" />
        </mxCell>
        <mxCell id="ADKkHKOh7hSKeZ0-6uWj-15" value="_strccmp" style="swimlane;" vertex="1" parent="1">
          <mxGeometry x="470" y="600" width="120" height="100" as="geometry" />
        </mxCell>
        <mxCell id="ADKkHKOh7hSKeZ0-6uWj-42" value="&lt;ul&gt;&lt;li&gt;malloc: no&lt;/li&gt;&lt;li style=&quot;&quot;&gt;return: int&lt;/li&gt;&lt;/ul&gt;" style="text;html=1;align=left;verticalAlign=middle;resizable=0;points=[];autosize=1;strokeColor=none;fillColor=none;" vertex="1" parent="ADKkHKOh7hSKeZ0-6uWj-15">
          <mxGeometry x="-10" y="30" width="120" height="70" as="geometry" />
        </mxCell>
        <mxCell id="ADKkHKOh7hSKeZ0-6uWj-16" value="getline" style="swimlane;" vertex="1" parent="1">
          <mxGeometry x="190" y="150" width="120" height="90" as="geometry" />
        </mxCell>
        <mxCell id="ADKkHKOh7hSKeZ0-6uWj-28" value="&lt;ul&gt;&lt;li&gt;malloc: yes&lt;/li&gt;&lt;li style=&quot;&quot;&gt;return: char *&lt;/li&gt;&lt;/ul&gt;" style="text;html=1;align=left;verticalAlign=middle;resizable=0;points=[];autosize=1;strokeColor=none;fillColor=none;" vertex="1" parent="ADKkHKOh7hSKeZ0-6uWj-16">
          <mxGeometry x="-10" y="20" width="130" height="70" as="geometry" />
        </mxCell>
        <mxCell id="ADKkHKOh7hSKeZ0-6uWj-57" value="find_file" style="swimlane;" vertex="1" parent="1">
          <mxGeometry x="930" y="310" width="130" height="90" as="geometry" />
        </mxCell>
        <mxCell id="ADKkHKOh7hSKeZ0-6uWj-58" value="&lt;ul&gt;&lt;li&gt;malloc: no&lt;/li&gt;&lt;li style=&quot;&quot;&gt;return: int&lt;/li&gt;&lt;/ul&gt;" style="text;html=1;align=left;verticalAlign=middle;resizable=1;points=[];autosize=1;strokeColor=none;fillColor=none;movable=1;rotatable=1;deletable=1;editable=1;locked=0;connectable=1;" vertex="1" parent="ADKkHKOh7hSKeZ0-6uWj-57">
          <mxGeometry x="-10" y="20" width="120" height="70" as="geometry" />
        </mxCell>
        <mxCell id="ADKkHKOh7hSKeZ0-6uWj-63" value="_strdup" style="swimlane;" vertex="1" parent="1">
          <mxGeometry x="793" y="470" width="125" height="90" as="geometry" />
        </mxCell>
        <mxCell id="ADKkHKOh7hSKeZ0-6uWj-64" value="&lt;ul&gt;&lt;li&gt;malloc: yes&lt;/li&gt;&lt;li style=&quot;&quot;&gt;return: char *&lt;/li&gt;&lt;/ul&gt;" style="text;html=1;align=left;verticalAlign=middle;resizable=0;points=[];autosize=1;strokeColor=none;fillColor=none;" vertex="1" parent="ADKkHKOh7hSKeZ0-6uWj-63">
          <mxGeometry x="-5" y="20" width="130" height="70" as="geometry" />
        </mxCell>
      </root>
    </mxGraphModel>
  </diagram>
</mxfile>
